HIERARCHY
ROOT hips
{
  OFFSET 0 10.6860622 2.3727825e-15
  CHANNELS 6 Xposition Yposition Zposition Yrotation Xrotation Zrotation
  JOINT leftUpperLeg
  {
    OFFSET 0.6642549969 -0.9402397400000004 0
    CHANNELS 3 Yrotation Xrotation Zrotation
    JOINT leftLowerLeg
    {
      OFFSET 0 -3.997221335632195 0
      CHANNELS 3 Yrotation Xrotation Zrotation
      JOINT leftFoot
      {
        OFFSET -0.13777839790000004 -4.6145792000000005 -0.22186036399999998
        CHANNELS 3 Yrotation Xrotation Zrotation
        JOINT leftToes
        {
          OFFSET -0.03777410834999995 -0.9130806927000008 0.85230013
          CHANNELS 3 Yrotation Xrotation Zrotation
          End Site
          {
            OFFSET -0.03777410834999995 -0.9130806927000008 0.85230013
          }
        }
      }
    }
  }
  JOINT rightUpperLeg
  {
    OFFSET -0.6642778626 -0.9402397400000004 0
    CHANNELS 3 Yrotation Xrotation Zrotation
    JOINT rightLowerLeg
    {
      OFFSET 0 -3.997221452859387 0
      CHANNELS 3 Yrotation Xrotation Zrotation
      JOINT rightFoot
      {
        OFFSET 0.1377926176 -4.6145792000000005 -0.22185782299999995
        CHANNELS 3 Yrotation Xrotation Zrotation
        JOINT rightToes
        {
          OFFSET 0.037780746850000047 -0.9130806927000008 0.85230167
          CHANNELS 3 Yrotation Xrotation Zrotation
          End Site
          {
            OFFSET 0.037780746850000047 -0.9130806927000008 0.85230167
          }
        }
      }
    }
  }
  JOINT spine
  {
    OFFSET 0 0.13988381660000015 0
    CHANNELS 3 Yrotation Xrotation Zrotation
    JOINT chest
    {
      OFFSET 0 0.6191039003973773 0
      CHANNELS 3 Yrotation Xrotation Zrotation
      JOINT upperChest
      {
        OFFSET 0 0.9855186130586943 0
        CHANNELS 3 Yrotation Xrotation Zrotation
        JOINT leftShoulder
        {
          OFFSET 0.1807663869 1.5087829790000005 0
          CHANNELS 3 Yrotation Xrotation Zrotation
          JOINT leftUpperArm
          {
            OFFSET 0.5985063006419806 0 0
            CHANNELS 3 Yrotation Xrotation Zrotation
            JOINT leftLowerArm
            {
              OFFSET 2.2993332369501065 0 0
              CHANNELS 3 Yrotation Xrotation Zrotation
              JOINT leftHand
              {
                OFFSET 2.395047042602395 0 0
                CHANNELS 3 Yrotation Xrotation Zrotation
                JOINT leftIndexProximal
                {
                  OFFSET 0.5766295810000004 0.04556643899499946 0.17265095988184
                  CHANNELS 3 Yrotation Xrotation Zrotation
                  JOINT leftIndexIntermediate
                  {
                    OFFSET 0.2957229000000008 -0.019352197700001517 -0.007932640616999987
                    CHANNELS 3 Yrotation Xrotation Zrotation
                    JOINT leftIndexDistal
                    {
                      OFFSET 0.19008243099999922 -0.012484908149998475 -0.002786250786000012
                      CHANNELS 3 Yrotation Xrotation Zrotation
                      End Site
                      {
                        OFFSET 0.19008243099999922 -0.012484908149998475 -0.002786250786000012
                      }
                    }
                  }
                }
                JOINT leftMiddleProximal
                {
                  OFFSET 0.5834975091000001 0.0524350405149987 0.02204081888183999
                  CHANNELS 3 Yrotation Xrotation Zrotation
                  JOINT leftMiddleIntermediate
                  {
                    OFFSET 0.33880573540000003 -0.019871473270000717 -0.00000971183179999946
                    CHANNELS 3 Yrotation Xrotation Zrotation
                    JOINT leftMiddleDistal
                    {
                      OFFSET 0.20676022730000088 -0.012221336379999448 0.0001471936708000235
                      CHANNELS 3 Yrotation Xrotation Zrotation
                      End Site
                      {
                        OFFSET 0.20676022730000088 -0.012221336379999448 0.0001471936708000235
                      }
                    }
                  }
                }
                JOINT leftLittleProximal
                {
                  OFFSET 0.5344154683999995 -0.012880921405001189 -0.24414037221816004
                  CHANNELS 3 Yrotation Xrotation Zrotation
                  JOINT leftLittleIntermediate
                  {
                    OFFSET 0.21758961730000093 -0.011650919939999227 0.011893592810000034
                    CHANNELS 3 Yrotation Xrotation Zrotation
                    JOINT leftLittleDistal
                    {
                      OFFSET 0.1475273964999999 -0.008152365682999818 0.006001092492999946
                      CHANNELS 3 Yrotation Xrotation Zrotation
                      End Site
                      {
                        OFFSET 0.1475273964999999 -0.008152365682999818 0.006001092492999946
                      }
                    }
                  }
                }
                JOINT leftRingProximal
                {
                  OFFSET 0.5799399463000003 0.026911854694997794 -0.12150566991816003
                  CHANNELS 3 Yrotation Xrotation Zrotation
                  JOINT leftRingIntermediate
                  {
                    OFFSET 0.26167887460000006 -0.013480186499999602 0.010996293000000053
                    CHANNELS 3 Yrotation Xrotation Zrotation
                    JOINT leftRingDistal
                    {
                      OFFSET 0.17667108799999987 -0.008990287899999228 0.0055541023999999065
                      CHANNELS 3 Yrotation Xrotation Zrotation
                      End Site
                      {
                        OFFSET 0.17667108799999987 -0.008990287899999228 0.0055541023999999065
                      }
                    }
                  }
                }
                JOINT leftThumbProximal
                {
                  OFFSET 0.11018806699999972 -0.09448718900500053 0.17047963138184
                  CHANNELS 3 Yrotation Xrotation Zrotation
                  JOINT leftThumbIntermediate
                  {
                    OFFSET 0.31062601459999983 -0.08126270900000132 0.15443142000000007
                    CHANNELS 3 Yrotation Xrotation Zrotation
                    JOINT leftThumbDistal
                    {
                      OFFSET 0.21627175790000086 -0.08833193599999878 0.018771167799999988
                      CHANNELS 3 Yrotation Xrotation Zrotation
                      End Site
                      {
                        OFFSET 0.21627175790000086 -0.08833193599999878 0.018771167799999988
                      }
                    }
                  }
                }
              }
            }
          }
        }
        JOINT neck
        {
          OFFSET 0 1.5463305265074576 0
          CHANNELS 3 Yrotation Xrotation Zrotation
          JOINT head
          {
            OFFSET 0 0.8456443600000344 0
            CHANNELS 3 Yrotation Xrotation Zrotation
            JOINT leftEye
            {
              OFFSET 0.30408573140000006 0.5104519199999995 0.1276382305
              CHANNELS 3 Yrotation Xrotation Zrotation
              End Site
              {
                OFFSET 0.30408573140000006 0.5104519199999995 0.1276382305
              }
            }
            JOINT rightEye
            {
              OFFSET -0.30409491089999996 0.5104519199999995 0.1276379445
              CHANNELS 3 Yrotation Xrotation Zrotation
              End Site
              {
                OFFSET -0.30409491089999996 0.5104519199999995 0.1276379445
              }
            }
            JOINT jaw
            {
              OFFSET -3.155239131000001e-7 -0.11984121820000082 0.60178107
              CHANNELS 3 Yrotation Xrotation Zrotation
              End Site
              {
                OFFSET -3.155239131000001e-7 -0.11984121820000082 0.60178107
              }
            }
          }
        }
        JOINT rightShoulder
        {
          OFFSET -0.1807303465 1.5087829790000005 0
          CHANNELS 3 Yrotation Xrotation Zrotation
          JOINT rightUpperArm
          {
            OFFSET -0.5985063796536958 0 0
            CHANNELS 3 Yrotation Xrotation Zrotation
            JOINT rightLowerArm
            {
              OFFSET -2.2993322059002854 0 0
              CHANNELS 3 Yrotation Xrotation Zrotation
              JOINT rightHand
              {
                OFFSET -2.395045314457259 0 0
                CHANNELS 3 Yrotation Xrotation Zrotation
                JOINT rightIndexProximal
                {
                  OFFSET -0.5764487688300002 0.0441371204405987 0.17361932004999997
                  CHANNELS 3 Yrotation Xrotation Zrotation
                  JOINT rightIndexIntermediate
                  {
                    OFFSET -0.29573011380000047 -0.01934826376999843 -0.007698921482999974
                    CHANNELS 3 Yrotation Xrotation Zrotation
                    JOINT rightIndexDistal
                    {
                      OFFSET -0.19008373999999884 -0.012503266380000655 -0.0026365778999999897
                      CHANNELS 3 Yrotation Xrotation Zrotation
                      End Site
                      {
                        OFFSET -0.19008373999999884 -0.012503266380000655 -0.0026365778999999897
                      }
                    }
                  }
                }
                JOINT rightMiddleProximal
                {
                  OFFSET -0.5834852037300005 0.05211639405060153 0.02307162440000001
                  CHANNELS 3 Yrotation Xrotation Zrotation
                  JOINT rightMiddleIntermediate
                  {
                    OFFSET -0.33880114510000003 -0.019952774050000954 0.0002455003561999819
                    CHANNELS 3 Yrotation Xrotation Zrotation
                    JOINT rightMiddleDistal
                    {
                      OFFSET -0.20675694929999955 -0.012273788999999091 0.00030209124000002766
                      CHANNELS 3 Yrotation Xrotation Zrotation
                      End Site
                      {
                        OFFSET -0.20675694929999955 -0.012273788999999091 0.00030209124000002766
                      }
                    }
                  }
                }
                JOINT rightLittleProximal
                {
                  OFFSET -0.5346811737299992 -0.011214256288399227 -0.24363941305000003
                  CHANNELS 3 Yrotation Xrotation Zrotation
                  JOINT rightLittleIntermediate
                  {
                    OFFSET -0.21757715980000092 -0.011771559690000988 0.01201554387
                    CHANNELS 3 Yrotation Xrotation Zrotation
                    JOINT rightLittleDistal
                    {
                      OFFSET -0.1475201849000004 -0.00822055339600003 0.006082065407000015
                      CHANNELS 3 Yrotation Xrotation Zrotation
                      End Site
                      {
                        OFFSET -0.1475201849000004 -0.00822055339600003 0.006082065407000015
                      }
                    }
                  }
                }
                JOINT rightRingProximal
                {
                  OFFSET -0.5800810755299999 0.027657985680600072 -0.12066365025000003
                  CHANNELS 3 Yrotation Xrotation Zrotation
                  JOINT rightRingIntermediate
                  {
                    OFFSET -0.26166445029999974 -0.013623118409999302 0.011164098990000045
                    CHANNELS 3 Yrotation Xrotation Zrotation
                    JOINT rightRingDistal
                    {
                      OFFSET -0.17666387530000027 -0.009072900100000503 0.005668185599999959
                      CHANNELS 3 Yrotation Xrotation Zrotation
                      End Site
                      {
                        OFFSET -0.17666387530000027 -0.009072900100000503 0.005668185599999959
                      }
                    }
                  }
                }
                JOINT rightThumbProximal
                {
                  OFFSET -0.10997596379000074 -0.09577489355940072 0.16989765924999997
                  CHANNELS 3 Yrotation Xrotation Zrotation
                  JOINT rightThumbIntermediate
                  {
                    OFFSET -0.31036620999999986 -0.08229339117999834 0.15440884469999996
                    CHANNELS 3 Yrotation Xrotation Zrotation
                    JOINT rightThumbDistal
                    {
                      OFFSET -0.21631306399999906 -0.08825326400000111 0.018656797720000014
                      CHANNELS 3 Yrotation Xrotation Zrotation
                      End Site
                      {
                        OFFSET -0.21631306399999906 -0.08825326400000111 0.018656797720000014
                      }
                    }
                  }
                }
              }
            }
          }
        }
      }
    }
  }
}
MOTION
Frames: 4
Frame Time: 0.03333333333333333
-0.0664484053850174 -0.23416362517089873 0.027343790978193283 -22.33757335668274 2.4536281154826676 0.03511426205173554 11.086132202752822 -14.255214973636608 8.679028157488297 7.413033283145955 7.821315077640812 4.324416235663824 0.0648656167191758 5.3058450290716195 -10.335920176619398 -0.0002090379755033562 0.009360495822190429 -0.016430722606128635 -7.417716650939221 -12.443624652777297 0.45088334428603005 -7.206251094031415 20.81067604945296 -5.220940839557172 -5.138801050065606 -10.370590851552612 5.159090444944117 -0.00002182723668224429 -0.000005957497889849072 0.000001989651398974272 0.014809561110902864 0.4795953372006112 3.3921246404447913 0.33117354913759905 2.2409034110007267 5.470190245224019 0 0 0 -10.002284976308017 1.221960648172609 -11.323676128876171 -20.65455435270168 3.1079639827457326 -66.13424308388058 -13.238166986792791 0.019657700031090585 0.16948490078406406 -4.718351467167295 4.299601719307466 -9.336537503891337 2.297643229994114 -0.7590325758357371 -30.06207063393873 2.6341787130859076 0.7286180616329622 -30.920015290029557 1.4408769503028518 0.20669734055061198 -16.327976350275414 7.567552409194135 2.257870935796079 -29.48162065478058 3.273125391459388 1.1808466770124313 -39.669023879004996 1.648077614629181 0.27218878465706803 -18.756766152918424 10.637484872459428 3.142528762690467 -47.52519803869945 2.545434380132211 0.6766582911591439 -29.771178773870844 0.9046186118210177 0.08045968154785994 -10.166810162623985 7.865355147033736 2.9333935919369334 -37.003828852531214 3.0702630852351565 1.0210701034071832 -36.785765012105614 1.8677667516178686 0.352423601664891 -21.370651307250757 -5.13869768653374 -1.1115065922761687 19.0279196090802 25.13507397006755 16.98590438943378 6.5662585237876145 -8.32987460718922 1.1220208909186296 7.815803754523695 1.2107541644831252 -9.803702971185608 2.6845627965733287 14.911385883892981 4.1417368244896915 -2.1055855796258847 0 0 0 0 0 0 0 0 0 15.805039232090538 0.8016831665479179 17.151252955800523 2.297339005095931 -4.605548463862997 56.731217909193745 11.875547560756852 0.015840341137645653 -0.15229779641551772 -1.4874879042590297 12.502719179506652 10.435974352051534 -2.5739025201868855 -0.19648858579703968 26.524407047555176 -2.049277381167389 0.5776744234609691 31.482682495437505 -0.9967859193311874 0.1287420371745982 14.71807743016232 -1.3409620724310445 -0.9868940600999841 28.353702854065777 -2.2571934647475587 0.7142256587968637 35.11349843682849 -1.752133959569843 0.4129605479067565 26.52189837558615 -1.8376671569602556 -1.8252298033861767 43.16272401400733 -2.165017282633366 0.6513608264671149 33.48500805514931 -1.0736975374334476 0.14977467979018147 15.882593125422378 -2.6305432254701286 -1.0168536090856612 42.44154385315149 -1.451469420886302 0.2783659082843882 21.711328748109793 -1.3446287940719168 0.23761175653937214 20.04202921620611 -6.981838404487999 -11.685908866063022 -6.578583760851769 -30.461876591569304 17.187372450665997 -8.816187503039558 -0.1550675936585284 2.5295012884570793 -27.721081770465517
-0.05732513219118118 -0.2338527273437503 0.020869571715593338 -22.145602119219443 2.5660674209671064 0.15933114159048298 11.077568781575224 -14.377995434496505 8.495556177461555 7.273950290901328 7.718600501417565 4.190033436163229 0.06744334204961133 5.419976360554579 -10.114190255871286 9.335174641756368e-8 -0.025090303846600364 -0.0000010681066208982855 -7.394679147926359 -12.6610256995325 0.32738665961411834 -7.211855268794263 20.87666628663257 -5.271218495684455 -5.325881082624711 -10.327020926647286 5.240600584683808 -2.49125278572561e-15 0.000005984677841490486 -1.9772691027936902e-15 -0.04891530725223318 0.6422288152841616 2.9464854128742375 0.12638980386417822 2.9196189863631155 5.7801571043640605 0 0 0 -9.96136735639148 1.2445913191814315 -11.257055546711236 -20.748066817738977 2.9334442443965085 -66.15000057520693 -13.165863523085097 0.019462397630603 0.16857650286408069 -4.86705576435629 4.33973936567382 -9.221439506945394 2.299206859784183 -0.7577870244133698 -30.056406133806572 2.6342673626235564 0.7286579787786902 -30.920824184210755 1.4411218658292073 0.20676610979741894 -16.33089258852602 7.568301554161182 2.2580625433065173 -29.4777597315512 3.2732687806800085 1.180953528134113 -39.670947348234556 1.6484140540665821 0.2723006035865876 -18.760771245440544 10.63891925355097 3.142766255476444 -47.522918212654155 2.545281026508649 0.6765729612055322 -29.769338356307976 0.9046098617230068 0.08045261789799431 -10.16671218690383 7.865547738510286 2.9334121858775237 -37.001687507581266 3.0701804051587467 1.0210221777515083 -36.784728024852754 1.867998015010855 0.35250836698360316 -21.373549567116733 -5.139271484565 -1.1099262804877599 19.028114303093798 25.137462967825897 16.9860008028887 6.566994826052973 -8.323092372858158 1.123419320455284 7.812290739552647 1.5917165784647225 -8.969859724392297 2.3009790062130104 15.422764264056683 3.0009066101965627 -2.6183426302458463 0 0 0 0 0 0 0 0 0 15.934803560430074 0.4400593808130945 18.79576157767873 2.821864225815515 -5.04583164806928 54.043854635429405 11.64015323492233 0.015236503034019381 -0.14932393489104348 -0.27497023483994293 12.86799680746264 11.771225960368593 -2.5761703032850174 -0.19360997788692635 26.479985926142547 -2.048472378724999 0.5771849728624302 31.468868435627094 -0.9971398746680648 0.1288319771193523 14.723358122056368 -1.3385441453886369 -0.9856129964021703 28.312362005009003 -2.2577133515928804 0.7145977729503417 35.1226755391232 -1.752773780199847 0.41327685258428004 26.532395623001737 -1.8310051190514296 -1.8291279814585475 43.14099540650428 -2.16373483389362 0.6505043295045905 33.462834984702035 -1.0728212898242764 0.14952940579322394 15.869070112217832 -2.628084204050094 -1.0174531593809402 42.41903257494008 -1.451804469622673 0.2784952298383323 21.71670275118457 -1.345049085759864 0.23776890560339148 20.048463998566813 -7.009848223187174 -11.695247351798345 -6.554473455491926 -30.408780587524156 17.162758498224683 -8.831776750919799 -0.1796100635131551 2.5308955794654673 -27.68961933287213
-0.035478007048368454 -0.2341884207031253 0.006555269472301006 -21.58811814864373 2.8456060346087897 0.39937105973748854 11.018822600604675 -14.868285725641865 8.133328904508831 6.880188393879069 7.7564264139621875 3.903108871100371 0.03871279780854566 5.728226782047288 -9.88146777483849 -0.0025519167177081607 0.06504853449386744 -0.24394235623458196 -7.319517257061839 -13.163611758557012 0.10574817363236819 -7.226982868484782 21.030551610491273 -5.414044880854827 -5.903291907598804 -10.22764551703747 5.467725854625649 0.0000025616962950960673 -0.000015609909153581614 -0.0000017407813918141112 -0.1862425071622997 0.9542863269292191 2.093984113053981 -0.32078786398644266 4.23554733633242 6.378964496137835 0 0 0 -9.711156854584392 1.3799012952051108 -10.856180535558504 -21.319822332327117 1.86104813159616 -66.22751754713416 -12.725215194809012 0.018181380241374834 0.16304178183418946 -5.7743392215951825 4.59608462383824 -8.495152169906293 2.309187734731064 -0.7499317336577613 -30.02038625350667 2.6346667846245277 0.72889988309319 -30.92602196225325 1.442720025531727 0.20723666220941656 -16.34944065767255 7.572975753863874 2.259230345702993 -29.4533011797031 3.274097784590894 1.181643417143529 -39.68307246173911 1.6505680493969963 0.27303037487435944 -18.786279830219325 10.647994085946351 3.144135848142145 -47.50853475590043 2.5443800025500303 0.6760662112430137 -29.75778984093185 0.9045470632035014 0.08044207244904705 -10.166083867208439 7.866807160293859 2.93347074610623 -36.98813981092818 3.0697004335097176 1.0206664178398455 -36.77808392877683 1.8695428412658408 0.3531122898857212 -21.39199195993629 -5.1428454228017095 -1.0998862767583615 19.02927405448296 25.15269626842035 16.986611422587384 6.571792630040749 -8.280045223242267 1.1323234501235093 7.79000865283505 2.313045717476432 -7.344457793340782 1.574990587196573 16.390840288750013 0.7830015064573147 -3.743454930532928 0 0 0 0 0 0 0 0 0 15.674643019613624 0.7532001536383168 17.808101553849323 3.5358014031826586 -6.001495531969409 54.20425690691678 11.62279206939137 0.015176675510661842 -0.14909727653509217 0.5158626332102695 13.250693048435673 11.894845199250714 -2.5807269767428003 -0.18782321479447533 26.391233665477557 -2.046855334800039 0.5761950255365546 31.441230452347998 -0.9978455445449886 0.12902336964301178 14.733937756933695 -1.3337174738348176 -0.9829825585386613 28.229693816464184 -2.258740035837724 0.7153149986517368 35.141090472131964 -1.7540632334354678 0.4139249370282761 26.55338706049115 -1.8176676181440397 -1.8368976688865473 43.09758806403915 -2.1612076082316056 0.6488453406611472 33.4185010780936 -1.0710427590331792 0.14902272943517966 15.84202875494084 -2.6231624763288597 -1.018623974583661 42.37409115270121 -1.4524897370718328 0.27876539903111797 21.727471676274558 -1.3458870018228744 0.23807661361457183 20.06132714746219 -7.065890330784602 -11.713846794837702 -6.506207549970928 -30.3026103843541 17.11352966330772 -8.862942583975334 -0.2287105515901182 2.5337384336618016 -27.626715191102804
-0.010489832609891891 -0.23532901518554716 -0.010361017659306526 -20.741551835005975 3.1182919561060176 0.6309893233758923 10.887393996096819 -15.699251023124525 7.787304464239487 6.2112504430667554 8.330689089003203 3.619917891818709 0.03566047168266441 5.768823826485215 -10.01460692712711 0.000003039862558957679 0.34952821414404034 -0.000002664806204572058 -7.223642393700784 -13.657454469472604 -0.07922198286163422 -7.242570632538659 21.202395531276974 -5.617914015189384 -6.791671588344398 -10.11584803344389 5.780155495758685 0.0000022529209221771035 -0.0000427117313089159 0.0000016785868409066522 -0.32716732251736114 1.2083226025619933 1.4359119527786337 -0.7918345477738048 5.333760725085929 6.808982693585979 0 0 0 -9.301866256876565 1.5910527562942285 -10.212828268520916 -22.239507096768346 0.1131925565571906 -66.31430087997536 -12.015985994246488 0.016216998737674373 0.15408577465025924 -7.231732873657725 5.050606542887084 -7.281947216096966 2.326016804216532 -0.736657104446767 -29.95967213931603 2.6353349273818414 0.7293180525940383 -30.93482726058123 1.4453928864770038 0.20801885740734666 -16.38067223047823 7.580891204371514 2.26121093387898 -29.41204761270686 3.2755090851645234 1.1828146170116087 -39.70355098835952 1.654212566141671 0.2742841290939462 -18.82924104391403 10.663283233352765 3.1464494313471922 -47.48424778769026 2.542890116558952 0.6752024524249901 -29.73828511338654 0.9044570012188983 0.08042721810698618 -10.165034469271806 7.868922190438791 2.9335786764627945 -36.965260768795204 3.0688983291598366 1.0200508561534507 -36.76687723088862 1.8721384960773861 0.3541340095957499 -21.423065231316713 -5.148892005273578 -1.0829647213890088 19.031263112786327 25.17835893271751 16.987689831823154 6.579907136917712 -8.207525364649376 1.1473958577938983 7.752450919593367 2.840767504897398 -6.119297221454398 1.015327325203184 17.03542909761563 -0.9653790434216608 -4.779756467188256 0 0 0 0 0 0 0 0 0 15.233442814950454 0.8454141825167363 17.982593879680955 4.550250449273748 -7.226665282010711 52.976275347259055 11.86482443068855 0.015826599049974913 -0.15214948044139395 1.8821829564351513 14.647828886314121 9.844501079775231 -2.5852957416648104 -0.18210034022161994 26.302429109579204 -2.0452486526301334 0.5752014496618366 31.413602518627773 -0.9985460330634587 0.12921557592318697 14.744500009552908 -1.3288839804745889 -0.9803972726380352 28.146997045675494 -2.2597721314464763 0.7160467931157257 35.15951213497401 -1.7553490599627997 0.41456429679739937 26.57438613670009 -1.8043011858413434 -1.844672515403246 43.05416972460866 -2.158673345022468 0.6471753059604779 33.37418031049907 -1.0692545182815214 0.14851201099060382 15.814986908876586 -2.618229072760546 -1.019806104504725 42.32909737210074 -1.453167836293484 0.2790318596068464 21.738236165175085 -1.3467069934607165 0.23836791302834429 20.074185484855462 -7.1219702084249565 -11.732465801668395 -6.4579808853223 -30.19637517396308 17.064262049070894 -8.894064115449618 -0.2778532467168076 2.5367220912733113 -27.563836622322924
